<?xml version="1.0" encoding="UTF-8"?>
<svg width="24px" height="24px" viewBox="0 0 24 24" version="1.1" xmlns="http://www.w3.org/2000/svg" xmlns:xlink="http://www.w3.org/1999/xlink">
    <title>Group</title>
    <g id="e" stroke="none" stroke-width="1" fill="none" fill-rule="evenodd">
        <g id="Group" fill-rule="nonzero">
            <circle id="Oval" fill="#FF695B" cx="12" cy="12" r="12"></circle>
            <path d="M9.73206035,14.2330902 L9.77261927,14.2339578 C10.1362366,14.2495299 10.4599435,14.4735727 10.6011802,14.8114457 L10.6011802,14.8114457 L10.6200228,14.85438 C10.8142408,15.2766841 11.182224,15.4878361 11.7238212,15.4878361 L11.7238212,15.4878361 L14.2496799,15.4878361 L14.3022731,15.4884117 C15.5786654,15.5163766 16.6050214,16.5597489 16.6050214,17.8430106 L16.6050214,17.8430106 L16.6050214,18.1259255 L11.7238212,18.1259255 L11.6508668,18.1252555 C10.3648454,18.101615 9.2311789,17.4542362 8.53977621,16.4730279 L8.53977621,16.4730279 L8.47974308,16.3854806 C8.38165952,16.238133 8.29349218,16.083672 8.21611089,15.9230641 L8.21611089,15.9230641 L8.17397413,15.8329112 C8.10561989,15.6816048 8.04667929,15.5250793 7.99782887,15.3639147 L7.99782887,15.3639147 L7.96615042,15.2535986 C7.92604131,15.1056037 7.8944831,14.9540389 7.87190336,14.799588 L7.87190336,14.799588 L7.86785369,14.7699799 C7.85195209,14.6468876 7.83961905,14.4678806 7.83098592,14.2330902 L7.83098592,14.2330902 L9.73206035,14.2330902 Z M13.4610588,6 L13.5195821,6.00047411 C15.4471065,6.03172548 17,7.60396871 17,9.53894116 L17,9.53894116 L16.9994785,9.60331034 C16.965101,11.7233775 15.2355848,13.4316094 13.1071647,13.4316094 L13.1071647,13.4316094 L5,13.4316094 L5.28692312,12.4731392 L5.30319967,12.4209723 C5.61759678,11.4526724 6.52100956,10.79352 7.54322775,10.79352 L7.54322775,10.79352 L13.1071647,10.79352 L13.14778,10.7928754 C13.8220658,10.7714439 14.3619106,10.2182787 14.3619106,9.53894116 L14.3619106,9.53894116 L14.3611953,9.50270965 C14.34218,9.02198382 13.9464468,8.63808941 13.4610588,8.63808941 L13.4610588,8.63808941 L11.7238212,8.63808941 L11.6707829,8.6387464 C11.1111408,8.65276236 10.7466965,8.89103359 10.5772978,9.3535601 L10.5772978,9.3535601 L10.5624665,9.39151835 C10.4169412,9.74156456 10.0744941,9.97183099 9.692813,9.97183099 L9.692813,9.97183099 L7.83098592,9.97183099 L7.83320548,9.9102746 C7.84459853,9.60832336 7.86043186,9.39381994 7.88125591,9.26621388 L7.88125591,9.26621388 L7.89989763,9.16023833 C7.93335375,8.98444488 7.97867839,8.81286533 8.03490508,8.64627289 L8.03490508,8.64627289 L8.06525626,8.55985323 C8.21149771,8.15872479 8.42187831,7.78818683 8.68390581,7.46100317 L8.68390581,7.46100317 L8.72717155,7.40794971 C9.44128918,6.5477536 10.518557,6 11.7238212,6 L11.7238212,6 L13.4610588,6 Z" id="Clip-2" fill="#FFE7E5"></path>
        </g>
    </g>
</svg>